<?xml version="1.0" standalone="no"?><!DOCTYPE svg PUBLIC "-//W3C//DTD SVG 1.1//EN" "http://www.w3.org/Graphics/SVG/1.1/DTD/svg11.dtd"><svg t="1653380989288" class="icon" viewBox="0 0 1024 1024" version="1.1" xmlns="http://www.w3.org/2000/svg" p-id="2584" xmlns:xlink="http://www.w3.org/1999/xlink" width="200" height="200"><defs><style type="text/css">@font-face { font-family: feedback-iconfont; src: url("//at.alicdn.com/t/font_1031158_u69w8yhxdu.woff2?t=1630033759944") format("woff2"), url("//at.alicdn.com/t/font_1031158_u69w8yhxdu.woff?t=1630033759944") format("woff"), url("//at.alicdn.com/t/font_1031158_u69w8yhxdu.ttf?t=1630033759944") format("truetype"); }
</style></defs><path d="M472.32 369.493333a36.693333 36.693333 0 1 0-36.693333-36.693333c0 20.053333 16.64 36.693333 36.693333 36.693333zM792.32 834.133333H213.333333c-35.413333 0-64-28.586667-64-64V274.346667c0-11.946667-9.386667-21.333333-21.333333-21.333334s-21.333333 9.386667-21.333333 21.333334v495.786666a106.666667 106.666667 0 0 0 106.666666 106.666667h578.986667c11.946667 0 21.333333-9.386667 21.333333-21.333333s-9.813333-21.333333-21.333333-21.333334z" fill="#666666" p-id="2585"></path><path d="M810.666667 147.2H317.013333a106.666667 106.666667 0 0 0-106.666666 106.666667v410.453333a106.666667 106.666667 0 0 0 106.666666 106.666667H810.666667a106.666667 106.666667 0 0 0 106.666666-106.666667V253.866667a106.666667 106.666667 0 0 0-106.666666-106.666667z m-493.653334 42.666667H810.666667c35.413333 0 64 28.586667 64 64v353.706666l-167.68-146.346666a20.906667 20.906667 0 0 0-28.16 0l-170.666667 147.626666-115.2-94.72a21.162667 21.162667 0 0 0-26.026667-0.853333l-113.92 81.92v-341.333333c0-35.413333 29.013333-64 64-64zM810.666667 728.32H317.013333c-35.413333 0-64-28.586667-64-64v-16.64l125.44-90.453333 116.48 96a21.333333 21.333333 0 0 0 27.733334-0.426667l170.666666-147.2 181.76 158.72c-0.426667 35.413333-29.013333 64-64.426666 64z" fill="#666666" p-id="2586"></path></svg>