<?xml version="1.0" standalone="no"?><!DOCTYPE svg PUBLIC "-//W3C//DTD SVG 1.1//EN" "http://www.w3.org/Graphics/SVG/1.1/DTD/svg11.dtd"><svg t="1653381099469" class="icon" viewBox="0 0 1024 1024" version="1.1" xmlns="http://www.w3.org/2000/svg" p-id="4504" xmlns:xlink="http://www.w3.org/1999/xlink" width="200" height="200"><defs><style type="text/css">@font-face { font-family: feedback-iconfont; src: url("//at.alicdn.com/t/font_1031158_u69w8yhxdu.woff2?t=1630033759944") format("woff2"), url("//at.alicdn.com/t/font_1031158_u69w8yhxdu.woff?t=1630033759944") format("woff"), url("//at.alicdn.com/t/font_1031158_u69w8yhxdu.ttf?t=1630033759944") format("truetype"); }
</style></defs><path d="M286.6 382.7c38.4 0 76.8-22.4 89.6-57.6 16-35.2 6.4-76.8-19.2-105.6-25.6-28.8-70.4-35.2-105.6-19.2-35.2 12.8-57.6 51.2-57.6 89.6 0 51.2 41.6 92.8 92.8 92.8z m-19.2-118.4c6.4-6.4 12.8-9.6 22.4-9.6 16 0 32 12.8 32 28.8s-12.8 32-28.8 35.2c-16 0-32-12.8-35.2-28.8 0-9.6 3.2-19.2 9.6-25.6zM225.4 674.3c8.7 0 17.4-3.5 24.4-10.4l224.6-183.1 81.7 80.3c7.3 7.3 14.7 10.5 24.5 10.5s17.2-3.1 24.5-10.5l217.4-216.5c13.9-13.9 14-34.9 0.1-48.9-4.7-6.2-12.1-9.9-20.9-10.5-10.4-0.7-21 3.1-28.2 10.4L583.7 484.4l-81.5-80.1c-7.3-7.3-14.7-10.5-24.5-10.5s-17.1 3.1-24.4 10.4L201 614.6l-0.2 0.2c-14 14-14 35.1 0 49 7 7 15.8 10.5 24.6 10.5z" p-id="4505"></path><path d="M900.4 65.6H125.8c-33.7 0-60.9 27.3-60.9 60.9v610.3c0 33.7 27.3 60.9 60.9 60.9h774.6c33.7 0 60.9-27.3 60.9-60.9V126.5c0.1-33.6-27.2-60.9-60.9-60.9z m-3 668.2H128.9V129.6h768.5v604.2zM286.9 895.3h-192c-17.7 0-32 14.3-32 32s14.3 32 32 32h192c17.7 0 32-14.3 32-32s-14.3-32-32-32zM607.7 895.3h-192c-17.7 0-32 14.3-32 32s14.3 32 32 32h192c17.7 0 32-14.3 32-32s-14.3-32-32-32zM927.8 895.3h-192c-17.7 0-32 14.3-32 32s14.3 32 32 32h192c17.7 0 32-14.3 32-32s-14.3-32-32-32z" p-id="4506"></path></svg>