<?xml version="1.0" standalone="no"?><!DOCTYPE svg PUBLIC "-//W3C//DTD SVG 1.1//EN" "http://www.w3.org/Graphics/SVG/1.1/DTD/svg11.dtd"><svg t="1652501880984" class="icon" viewBox="0 0 1024 1024" version="1.1" xmlns="http://www.w3.org/2000/svg" p-id="9628" xmlns:xlink="http://www.w3.org/1999/xlink" width="200" height="200"><defs><style type="text/css">@font-face { font-family: feedback-iconfont; src: url("//at.alicdn.com/t/font_1031158_u69w8yhxdu.woff2?t=1630033759944") format("woff2"), url("//at.alicdn.com/t/font_1031158_u69w8yhxdu.woff?t=1630033759944") format("woff"), url("//at.alicdn.com/t/font_1031158_u69w8yhxdu.ttf?t=1630033759944") format("truetype"); }
</style></defs><path d="M768 856.746667c-1.706667 0-3.84 0-5.546667-0.426667L232.533333 787.2C174.08 780.8 128 727.466667 128 666.026667V308.48c0-61.44 46.08-114.773333 104.96-121.6l529.493333-69.12c1.706667-0.426667 3.84-0.426667 5.546667-0.426667 70.4 0 128 61.013333 128 136.106667v466.773333c0 75.52-57.6 136.533333-128 136.533334z m2.133333-653.653334L243.626667 271.786667c-16.64 2.133333-30.293333 18.773333-30.293334 36.693333v357.12c0 17.92 13.653333 34.986667 29.44 36.693333l527.36 68.693334c22.613333-1.28 40.533333-23.466667 40.533334-50.773334V253.866667c0-26.88-17.92-49.066667-40.533334-50.773334z" p-id="9629"></path><path d="M633.6 456.96l-142.506667-91.733333a35.242667 35.242667 0 0 0-52.906666 30.293333v183.893333c0 26.88 29.44 43.946667 52.906666 30.293334l142.506667-91.733334c23.466667-13.653333 23.466667-47.786667 0-61.013333z" p-id="9630"></path></svg>