<?xml version="1.0" standalone="no"?><!DOCTYPE svg PUBLIC "-//W3C//DTD SVG 1.1//EN" "http://www.w3.org/Graphics/SVG/1.1/DTD/svg11.dtd"><svg t="1652503310202" class="icon" viewBox="0 0 1024 1024" version="1.1" xmlns="http://www.w3.org/2000/svg" p-id="14496" xmlns:xlink="http://www.w3.org/1999/xlink" width="200" height="200"><defs><style type="text/css">@font-face { font-family: feedback-iconfont; src: url("//at.alicdn.com/t/font_1031158_u69w8yhxdu.woff2?t=1630033759944") format("woff2"), url("//at.alicdn.com/t/font_1031158_u69w8yhxdu.woff?t=1630033759944") format("woff"), url("//at.alicdn.com/t/font_1031158_u69w8yhxdu.ttf?t=1630033759944") format("truetype"); }
</style></defs><path d="M663.893333 989.866667H172.373333c-73.386667 0-133.12-63.146667-133.12-141.653334V175.786667C39.253333 97.28 98.986667 34.133333 172.373333 34.133333h489.813334c73.386667 0 133.12 63.146667 133.12 141.653334v78.506666c0 13.653333-11.946667 25.6-25.6 25.6s-25.6-11.946667-25.6-25.6v-78.506666c0-49.493333-37.546667-90.453333-81.92-90.453334H172.373333c-44.373333 0-81.92 40.96-81.92 90.453334v670.72c0 49.493333 37.546667 90.453333 81.92 90.453333h489.813334c44.373333 0 81.92-40.96 81.92-90.453333v-58.026667c0-13.653333 11.946667-25.6 25.6-25.6s25.6 11.946667 25.6 25.6v58.026667c1.706667 80.213333-58.026667 143.36-131.413334 143.36z" fill="#333333" p-id="14497"></path><path d="M450.56 843.093333H443.733333c-5.12 0-10.24 0-15.36-3.413333-10.24-5.12-13.653333-17.066667-11.946666-27.306667l25.6-121.173333c1.706667-5.12 3.413333-10.24 6.826666-13.653333l395.946667-372.053334c5.12-5.12 11.946667-6.826667 18.773333-6.826666 6.826667 0 13.653333 3.413333 18.773334 8.533333l97.28 107.52c10.24 10.24 8.533333 27.306667-1.706667 35.84L570.026667 822.613333c-3.413333 3.413333-8.533333 5.12-13.653334 6.826667l-97.28 11.946667c-3.413333 0-5.12 1.706667-8.533333 1.706666z m39.253333-134.826666l-17.066666 78.506666 68.266666-8.533333L921.6 428.373333l-61.44-68.266666-370.346667 348.16z" fill="#333333" p-id="14498"></path><path d="M865.28 537.6c-6.826667 0-13.653333-3.413333-18.773333-8.533333L750.933333 426.666667c-10.24-10.24-8.533333-27.306667 1.706667-35.84 10.24-10.24 27.306667-8.533333 35.84 1.706666l95.573333 102.4c10.24 10.24 8.533333 27.306667-1.706666 35.84-3.413333 3.413333-10.24 6.826667-17.066667 6.826667z" fill="#333333" p-id="14499"></path><path d="M300.373333 843.093333c3.413333-1.706667 8.533333 3.413333 11.946667 0l100.693333-13.653333L819.2 457.386667l-97.28-107.52-395.946667 372.053333-25.6 121.173333" fill="#333333" opacity=".3" p-id="14500"></path><path d="M308.906667 868.693333h-6.826667c-5.12 0-10.24 0-15.36-3.413333-10.24-5.12-13.653333-17.066667-11.946667-27.306667l25.6-121.173333c1.706667-5.12 3.413333-10.24 6.826667-13.653333l395.946667-372.053334c5.12-5.12 11.946667-6.826667 18.773333-6.826666 6.826667 0 13.653333 3.413333 18.773333 8.533333l97.28 107.52c10.24 10.24 8.533333 27.306667-1.706666 35.84L430.08 848.213333c-3.413333 3.413333-8.533333 5.12-13.653333 6.826667l-97.28 11.946667c-3.413333 1.706667-5.12 1.706667-10.24 1.706666z m40.96-133.12l-17.066667 80.213334 68.266667-8.533334 380.586666-349.866666-61.44-68.266667-370.346666 346.453333z" fill="#333333" opacity=".3" p-id="14501"></path><path d="M631.466667 435.2l93.866666 102.4M725.333333 563.2c-6.826667 0-13.653333-3.413333-18.773333-8.533333l-95.573333-102.4c-10.24-10.24-8.533333-27.306667 1.706666-35.84 10.24-10.24 27.306667-8.533333 35.84 1.706666l95.573334 102.4c10.24 10.24 8.533333 27.306667-1.706667 35.84-3.413333 5.12-10.24 6.826667-17.066667 6.826667z" fill="#333333" opacity=".3" p-id="14502"></path><path d="M622.933333 283.306667h-409.6c-13.653333 0-25.6-11.946667-25.6-25.6s11.946667-25.6 25.6-25.6h407.893334c13.653333 0 25.6 11.946667 25.6 25.6s-10.24 25.6-23.893334 25.6zM622.933333 474.453333h-409.6c-13.653333 0-25.6-11.946667-25.6-25.6s11.946667-25.6 25.6-25.6h407.893334c13.653333 0 25.6 11.946667 25.6 25.6s-10.24 25.6-23.893334 25.6z" fill="#333333" p-id="14503"></path><path d="M358.4 667.306667h-143.36c-13.653333 0-25.6-11.946667-25.6-25.6s11.946667-25.6 25.6-25.6H358.4c13.653333 0 25.6 11.946667 25.6 25.6s-11.946667 25.6-25.6 25.6z" fill="#333333" p-id="14504"></path></svg>