<?xml version="1.0" standalone="no"?><!DOCTYPE svg PUBLIC "-//W3C//DTD SVG 1.1//EN" "http://www.w3.org/Graphics/SVG/1.1/DTD/svg11.dtd"><svg t="1652501865158" class="icon" viewBox="0 0 1024 1024" version="1.1" xmlns="http://www.w3.org/2000/svg" p-id="9348" xmlns:xlink="http://www.w3.org/1999/xlink" width="200" height="200"><defs><style type="text/css">@font-face { font-family: feedback-iconfont; src: url("//at.alicdn.com/t/font_1031158_u69w8yhxdu.woff2?t=1630033759944") format("woff2"), url("//at.alicdn.com/t/font_1031158_u69w8yhxdu.woff?t=1630033759944") format("woff"), url("//at.alicdn.com/t/font_1031158_u69w8yhxdu.ttf?t=1630033759944") format("truetype"); }
</style></defs><path d="M541.44 686.464L362.688 561.792h-49.792v99.584H113.792v99.584h199.104v99.584h49.792l178.816-124.672c20.288-12.736 20.288-36.736-0.064-49.408z m357.44-285.376L624.576 75.456A38.272 38.272 0 0 0 597.248 64H213.312c-32 0-49.792 17.536-49.792 49.792V512h99.584V163.584h298.688v248.896c0 21.504 28.416 49.792 49.792 49.792h199.104l0.704 398.208h-150.016V960h199.104c32 0 49.792-17.536 49.792-49.792V428.608a39.296 39.296 0 0 0-11.392-27.52z" p-id="9349"></path></svg>