<?xml version="1.0" standalone="no"?><!DOCTYPE svg PUBLIC "-//W3C//DTD SVG 1.1//EN" "http://www.w3.org/Graphics/SVG/1.1/DTD/svg11.dtd"><svg t="1652501872717" class="icon" viewBox="0 0 1024 1024" version="1.1" xmlns="http://www.w3.org/2000/svg" p-id="9488" xmlns:xlink="http://www.w3.org/1999/xlink" width="200" height="200"><defs><style type="text/css">@font-face { font-family: feedback-iconfont; src: url("//at.alicdn.com/t/font_1031158_u69w8yhxdu.woff2?t=1630033759944") format("woff2"), url("//at.alicdn.com/t/font_1031158_u69w8yhxdu.woff?t=1630033759944") format("woff"), url("//at.alicdn.com/t/font_1031158_u69w8yhxdu.ttf?t=1630033759944") format("truetype"); }
</style></defs><path d="M888.1216 827.36l-77.376-77.792c-0.9088-0.9088-1.9008-1.5808-2.8416-2.336 13.0624-20.1536 20.6976-44.1664 20.6976-70.0352 0-71.0656-57.3056-128.6656-128.0256-128.6656-70.6944 0-128.032 57.6-128.032 128.6656 0 71.0784 57.3376 128.6656 128.032 128.6656 25.728 0 49.6512-7.68 69.7344-20.832 0.7296 0.9728 1.408 1.952 2.2912 2.8416l77.3952 77.8048c5.28 5.2928 12.16 7.9232 19.0656 7.9232 6.8864 0 13.7792-2.6432 19.0592-7.9104C898.624 855.0848 898.624 837.9456 888.1216 827.36M700.576 765.2224c-48.288 0-87.6032-39.5008-87.6032-88.0448 0-48.5312 39.3152-88.0384 87.6032-88.0384 48.2944 0 87.5968 39.5072 87.5968 88.0384C788.1664 725.728 748.8704 765.2224 700.576 765.2224M576.3392 792.6912C555.6416 797.4208 534.1312 800 512 800c-159.0592 0-288-128.9408-288-288s128.9408-288 288-288c159.0592 0 288 128.9408 288 288 0 10.816-0.6528 21.4848-1.8112 31.9936 33.4272 24.7168 60.9152 57.568 79.9232 84.032C889.7088 591.4112 896 552.448 896 512c0-212.0768-171.9232-384-384-384-212.0768 0-384 171.9232-384 384 0 212.0768 171.9232 384 384 384 55.8144 0 108.7872-12.0064 156.6336-33.4144l-54.0672-33.1968C599.3728 817.2416 586.7776 804.9664 576.3392 792.6912zM613.9072 525.3312 550.4 525.3312 550.4 375.2c0-25.184-20.4096-45.6-45.6-45.6-25.184 0-45.6 20.416-45.6 45.6l0 196.8c0 25.184 20.416 45.6 45.6 45.6 3.3472 0 6.5984-0.384 9.7408-1.0688l32.1728 0c18.816-47.2064 50.5984-78.6432 50.5984-78.6432C602.784 533.0944 608.3264 528.9664 613.9072 525.3312z" p-id="9489"></path></svg>