<?xml version="1.0" standalone="no"?><!DOCTYPE svg PUBLIC "-//W3C//DTD SVG 1.1//EN" "http://www.w3.org/Graphics/SVG/1.1/DTD/svg11.dtd"><svg t="1652501369635" class="icon" viewBox="0 0 1024 1024" version="1.1" xmlns="http://www.w3.org/2000/svg" p-id="3349" xmlns:xlink="http://www.w3.org/1999/xlink" width="200" height="200"><defs><style type="text/css">@font-face { font-family: feedback-iconfont; src: url("//at.alicdn.com/t/font_1031158_u69w8yhxdu.woff2?t=1630033759944") format("woff2"), url("//at.alicdn.com/t/font_1031158_u69w8yhxdu.woff?t=1630033759944") format("woff"), url("//at.alicdn.com/t/font_1031158_u69w8yhxdu.ttf?t=1630033759944") format("truetype"); }
</style></defs><path d="M875.6 724c0 128.5-162.8 160-363.6 160s-363.6-31.5-363.6-160S311.2 418.6 512 418.6 875.6 595.5 875.6 724z" fill="#C7F1FF" p-id="3350"></path><path d="M799 391.7L685.3 505.5c-15.6 15.6-40.9 15.6-56.6 0L514.9 391.7c-15.6-15.6-15.6-40.9 0-56.6l113.7-113.7c15.6-15.6 40.9-15.6 56.6 0L799 335.1c15.6 15.7 15.6 41 0 56.6z" fill="#FFD500" p-id="3351"></path><path d="M515.047 335.08l28.354-28.355 170.34 170.34-28.354 28.356z" fill="#FFB600" p-id="3352"></path><path d="M423.1 488.4H253.3c-22.1 0-40-17.9-40-40V278.5c0-22.1 17.9-40 40-40h169.9c22.1 0 40 17.9 40 40v169.9c-0.1 22-18 40-40.1 40z" fill="#EF8686" p-id="3353"></path><path d="M254.9 238.5h41.6v249.9h-41.6z" fill="#E26060" p-id="3354"></path><path d="M406.8 377.8l-0.1-0.1c-1.7-2.1-3.8-3.5-6.2-4.3l-0.4-0.1h-34.4l-0.4 0.1c-0.7 0.2-1.2 0.4-1.6 0.6l-0.3 0.1c-2.8 1.5-4.9 3.7-6.1 6.5l-0.2 0.5v0.1c-1.5-0.5-3.2-0.4-4.9 0.4l-0.5 0.2-5.2 5.5v-36.9c0-2.3-0.8-4.4-2.4-6-1.6-1.6-3.7-2.5-6-2.5h-10.7c-2.8 0-4.4 1.2-5.3 2.2-1.2 1.4-1.9 3-1.9 4.7 0 1.7 0.6 3.3 1.8 4.4 0.8 0.8 2.3 1.8 4.8 1.8h7.3l0.3 0.3V400c0 1.9 0.8 3.6 2.3 5.2 1.6 1.6 3.3 2.3 5.2 2.3 1.4 0 2.6-0.5 3.5-1.4l11.7-12.6v11.8l0.4 0.6c0.6 1.1 1.2 2 1.7 2.6l0.1 0.1c1.7 2.1 3.8 3.5 6.2 4.3l0.4 0.1h34.4l0.4-0.1c0.7-0.2 1.3-0.4 1.6-0.6l0.2-0.1c2.8-1.5 4.9-3.7 6.1-6.5l0.2-0.5V381l-0.4-0.6c-0.6-1.1-1.1-1.9-1.6-2.6z m-10.5 22.9l-0.6 0.4H370h-0.1c-0.2-0.1-0.3-0.3-0.4-0.4v-14.9h26.7v14.9zM341.8 340.4c1.3 0.9 2.6 1.4 4.1 1.4 1.8 0 3.4-0.5 4.8-1.6 2-1.5 2.4-3.4 2.4-4.7 0-0.7-0.2-1.4-0.5-2.3-0.3-0.8-0.8-1.4-1.3-2-1.6-2.1-3-3.9-4.2-5.3-3.6-4.4-7.2-8.2-10.6-11.3l-0.8-0.7h-1.1c-1.4 0-2.4 0.1-3.2 0.3l-0.2 0.1c-2.8 0.9-4.4 3.2-4.4 6.2v1l14.7 18.8 0.3 0.1z" fill="#FFFFFF" p-id="3355"></path><path d="M414.7 360.3c-1-1.6-2.5-2.4-4.2-2.4H405v-11.8l-0.1-0.4c-0.6-1.9-1.2-3.3-1.8-4.3-2.1-3.1-5.1-4.9-8.8-5.2h-10.7c0.2-1 0.5-2.3 0.9-3.9 0.2-0.7 0.3-1.4 0.5-2.1h24.5l0.7-0.5c2.2-1.5 3.3-3.8 3.3-6.5s-1.3-4.8-3.8-5.9l-0.5-0.2h-48.4c-0.9 0.1-1.6 0.3-2.2 0.6-1.8 0.9-2.8 2.6-2.8 4.7 0 0.7 0 1.7 0.1 2.7 0.1 1.5 0.9 3.6 4.2 4.9l0.5 0.2h11c-0.2 1-0.5 2.3-0.9 3.9-0.2 0.7-0.3 1.4-0.5 2.1h-11.3l-0.8 0.6c-0.4 0.4-0.8 0.6-1 0.9l-0.1 0.1c-1.5 1.6-2.2 3.3-2.2 5.2 0 1.5 0.6 3.8 3.3 5.9l0.7 0.6h8.1c-0.2 1.1-0.5 2.3-0.8 3.7-0.4 2-0.7 3.6-1 4.8h-9.8c-1.8 0-3.4 0.9-4.3 2.4-0.7 1.2-1.1 2.5-1.1 4.1 0 1.6 0.4 3 1.3 4.1 1 1.3 2.5 2 4.2 2h55c1.8 0 3.3-0.8 4.2-2.2 0.8-1.1 1.2-2.4 1.2-3.8 0.1-1.7-0.3-3-1.1-4.3z m-22.2-10.6v8.2h-14l1.9-8.6h11.7l0.4 0.4z" fill="#FFFFFF" p-id="3356"></path><path d="M423.1 814.3H253.3c-22.1 0-40-17.9-40-40V604.5c0-22.1 17.9-40 40-40h169.9c22.1 0 40 17.9 40 40v169.9c-0.1 22-18 39.9-40.1 39.9z" fill="#00B1FF" p-id="3357"></path><path d="M254.9 564.5h41.6v249.9h-41.6z" fill="#0091F1" p-id="3358"></path><path d="M369.4 665.6v-20.7c0.4-5.6 3.4-8.6 9-9 5.2 0.4 8 3.4 8.4 9v20.7h20.7c5.6 0.4 8.6 3.2 9 8.4-0.4 5.6-3.4 8.6-9 9h-20.7v20.7c0 4.9-2.8 7.3-8.4 7.3-5.6 0-8.6-2.4-9-7.3V683h-20.7c-5.2-0.4-8-3.4-8.4-9 0.4-5.2 3.2-8 8.4-8.4h20.7zM348.1 726.4H407c4.3 0 7.7 3.5 7.7 7.7v0.5c0 4.3-3.5 7.7-7.7 7.7h-58.9c-4.3 0-7.7-3.5-7.7-7.7v-0.5c-0.1-4.2 3.4-7.7 7.7-7.7z" fill="#FFFFFF" p-id="3359"></path><path d="M741.9 814.3H572c-22.1 0-40-17.9-40-40V604.5c0-22.1 17.9-40 40-40h169.9c22.1 0 40 17.9 40 40v169.9c0 22-17.9 39.9-40 39.9z" fill="#7BD721" p-id="3360"></path><path d="M573.7 564.5h41.6v249.9h-41.6z" fill="#6EC11D" p-id="3361"></path><path d="M672.8 725.8v-71.3c0-7.4 3.2-11.1 9.6-11.1h32.4c5.7 0.3 8.8 3.2 9.1 8.6-0.3 5.7-3.4 8.8-9.1 9.1H692v18.7h21.2c5.7 0.3 8.9 3.4 9.6 9.1-0.7 5.7-3.9 8.8-9.6 9.1H692v19.7h23.8c5.7 0 8.8 2.9 9.1 8.6-0.3 5.7-3.4 8.8-9.1 9.1h-33.4c-6.1-0.3-9.3-3.5-9.6-9.6z" fill="#FFFFFF" p-id="3362"></path></svg>