<?xml version="1.0" standalone="no"?><!DOCTYPE svg PUBLIC "-//W3C//DTD SVG 1.1//EN" "http://www.w3.org/Graphics/SVG/1.1/DTD/svg11.dtd"><svg t="1652501306443" class="icon" viewBox="0 0 1298 1024" version="1.1" xmlns="http://www.w3.org/2000/svg" p-id="1986" xmlns:xlink="http://www.w3.org/1999/xlink" width="253.515625" height="200"><defs><style type="text/css">@font-face { font-family: feedback-iconfont; src: url("//at.alicdn.com/t/font_1031158_u69w8yhxdu.woff2?t=1630033759944") format("woff2"), url("//at.alicdn.com/t/font_1031158_u69w8yhxdu.woff?t=1630033759944") format("woff"), url("//at.alicdn.com/t/font_1031158_u69w8yhxdu.ttf?t=1630033759944") format("truetype"); }
</style></defs><path d="M675.057703 207.819807l220.065483-0.95112-10.581215 736.167189c5.706722 42.800418-52.430512 73.236271-89.405317 73.236271H142.90584c-36.974806 0-31.505863-34.240334-31.505863-73.236271l-6.895623-850.063857c0-38.995936 1.426681-72.04737 38.401486-72.04737H670.539882l4.517821 186.895158z" fill="#BF8E58" p-id="1987"></path><path d="M654.251945 410.646232H276.657146c-24.61024 0-44.702659-20.092418-44.702659-44.702658s20.092418-44.702659 44.702659-44.702659h377.594799c24.61024 0 44.702659 20.092418 44.702659 44.702659s-20.092418 44.702659-44.702659 44.702658z m-377.594799-71.215139c-14.623476 0-26.393591 11.889005-26.393591 26.393591 0 14.623476 11.889005 26.512481 26.393591 26.512481h377.594799c14.623476 0 26.393591-11.889005 26.393591-26.512481s-11.889005-26.393591-26.393591-26.393591H276.657146zM654.251945 605.982584H276.657146c-24.61024 0-44.702659-20.092418-44.702659-44.702658 0-24.61024 20.092418-44.702659 44.702659-44.702659h377.594799c24.61024 0 44.702659 20.092418 44.702659 44.702659 0 24.61024-20.092418 44.702659-44.702659 44.702658z m-377.594799-71.215139c-14.623476 0-26.393591 11.889005-26.393591 26.393591 0 14.623476 11.889005 26.512481 26.393591 26.512481h377.594799c14.623476 0 26.393591-11.889005 26.393591-26.512481s-11.889005-26.393591-26.393591-26.393591H276.657146zM654.251945 801.318936H276.657146c-24.61024 0-44.702659-20.092418-44.702659-44.702658 0-24.61024 20.092418-44.702659 44.702659-44.702659h377.594799c24.61024 0 44.702659 20.092418 44.702659 44.702659 0 24.61024-20.092418 44.702659-44.702659 44.702658z m-377.594799-71.096249c-14.623476 0-26.393591 11.889005-26.393591 26.393591 0 14.623476 11.889005 26.393591 26.393591 26.393591h377.594799c14.623476 0 26.393591-11.889005 26.393591-26.393591 0-14.623476-11.889005-26.393591-26.393591-26.393591H276.657146z" fill="#070606" p-id="1988"></path><path d="M679.337745 0H127.450134c-44.345989 0-80.488564 36.142575-80.488564 80.488564v863.022872c0 44.345989 36.142575 80.488564 80.488564 80.488564h696.339022c44.464879 0 80.607454-36.142575 80.607454-80.488564v-740.685011L679.337745 0z m4.874492 28.890282L872.415186 198.665273H684.212237v-169.774991z m139.458029 976.91954H127.450134c-34.359224 0-62.298386-27.939162-62.298387-62.298386V80.607454c0-34.359224 27.939162-62.298386 62.298387-62.298386h538.571926V216.974341h220.065482V943.630326c-0.11889 34.240334-28.058052 62.179496-62.417276 62.179496z" fill="#070606" p-id="1989"></path><path d="M683.855567 362.257982c0 17.714617-15.574597 31.981423-34.834784 31.981424H278.797167c-19.260188 0-34.834785-14.266806-34.834785-31.981424 0-17.714617 15.574597-31.981423 34.834785-31.981423h370.104725c19.260188 0 34.953675 14.385696 34.953675 31.981423zM685.401138 561.279926c0 17.714617-15.574597 31.981423-34.834785 31.981423H280.342738c-19.260188 0-34.834785-14.266806-34.834785-31.981423 0-17.714617 15.574597-31.981423 34.834785-31.981424h370.104725c19.260188 0 34.953675 14.266806 34.953675 31.981424zM685.401138 756.616278c0 17.595727-15.574597 31.981423-34.834785 31.981423H280.342738c-19.260188 0-34.834785-14.266806-34.834785-31.981423 0-17.714617 15.574597-31.981423 34.834785-31.981424h370.104725c19.260188 0 34.953675 14.385696 34.953675 31.981424z" fill="#EEBF2F" p-id="1990"></path><path d="M885.493092 569.126669c0 241.941252-205.204226 438.823174-449.404389 436.683153h357.50238c42.800418 3.804482 92.734239-1.1889 92.734239-68.242888" fill="#B1702D" p-id="1991"></path></svg>