<?xml version="1.0" standalone="no"?><!DOCTYPE svg PUBLIC "-//W3C//DTD SVG 1.1//EN" "http://www.w3.org/Graphics/SVG/1.1/DTD/svg11.dtd"><svg t="1652503332121" class="icon" viewBox="0 0 1024 1024" version="1.1" xmlns="http://www.w3.org/2000/svg" p-id="15323" xmlns:xlink="http://www.w3.org/1999/xlink" width="200" height="200"><defs><style type="text/css">@font-face { font-family: feedback-iconfont; src: url("//at.alicdn.com/t/font_1031158_u69w8yhxdu.woff2?t=1630033759944") format("woff2"), url("//at.alicdn.com/t/font_1031158_u69w8yhxdu.woff?t=1630033759944") format("woff"), url("//at.alicdn.com/t/font_1031158_u69w8yhxdu.ttf?t=1630033759944") format("truetype"); }
</style></defs><path d="M898.433097 1023.236675 669.054044 1023.236675 669.054044 962.934029 868.281774 962.934029 868.281774 61.065971 461.048081 61.065971 461.048081 302.658218C461.048081 319.310145 447.548684 332.809542 430.896757 332.809542 430.320066 332.809542 429.747954 332.789695 429.179277 332.757635 428.6106 332.789695 428.038488 332.809542 427.461796 332.809542L155.718226 332.809542 155.718226 962.934029 363.724189 962.934029 363.724189 1023.236675 125.566903 1023.236675C108.914594 1023.236675 95.41558 1009.737279 95.41558 993.085352L95.41558 289.300037C95.41558 281.899987 98.085689 275.127007 102.509155 269.880295 104.538454 266.701048 107.011244 263.65004 109.913786 260.836807L363.910059 14.654688C369.271269 6.30239 378.633446 0.763325 389.295565 0.763325L898.433097 0.763325C915.085024 0.763325 928.58442 14.262339 928.58442 30.914648L928.58442 993.085352C928.58442 1009.737279 915.085024 1023.236675 898.433097 1023.236675ZM400.745434 62.931918 184.518464 272.506895 400.745434 272.506895 400.745434 62.931918ZM254.310763 662.04596 254.188249 614.364887 804.033884 614.337026 804.15678 662.018099 254.310763 662.04596ZM254.188249 417.264543 804.033884 417.236681 804.15678 464.917373 254.310763 464.945616 254.188249 417.264543ZM254.310763 563.577082 254.188249 515.896009 804.033884 515.868148 804.15678 563.549221 254.310763 563.577082ZM512.954156 766.380988 607.264441 860.648528 551.108938 860.648528 551.076878 985.605916 478.220213 985.568513 478.252654 860.648528 418.64387 860.648528 512.954156 766.380988Z" p-id="15324"></path></svg>