<?xml version="1.0" standalone="no"?><!DOCTYPE svg PUBLIC "-//W3C//DTD SVG 1.1//EN" "http://www.w3.org/Graphics/SVG/1.1/DTD/svg11.dtd"><svg t="1652501478661" class="icon" viewBox="0 0 1024 1024" version="1.1" xmlns="http://www.w3.org/2000/svg" p-id="6862" xmlns:xlink="http://www.w3.org/1999/xlink" width="200" height="200"><defs><style type="text/css">@font-face { font-family: feedback-iconfont; src: url("//at.alicdn.com/t/font_1031158_u69w8yhxdu.woff2?t=1630033759944") format("woff2"), url("//at.alicdn.com/t/font_1031158_u69w8yhxdu.woff?t=1630033759944") format("woff"), url("//at.alicdn.com/t/font_1031158_u69w8yhxdu.ttf?t=1630033759944") format("truetype"); }
</style></defs><path d="M511.706311 64.020082c-247.272733 0-447.725114 200.453405-447.725114 447.725114s200.452381 447.725114 447.725114 447.725114 447.725114-200.453405 447.725114-447.725114S758.979044 64.020082 511.706311 64.020082zM630.484531 495.600495c0 16.887622-13.672394 30.56411-30.54262 30.56411-16.870226 0-30.54262-13.676487-30.54262-30.56411 0-16.84976 13.672394-30.526247 30.54262-30.526247C616.812137 465.074248 630.484531 478.750735 630.484531 495.600495zM439.423031 287.845801c27.952632 0 50.603515 22.660092 50.603515 50.577932 0 27.979238-22.650883 50.640354-50.603515 50.640354-27.952632 0-50.606585-22.660092-50.606585-50.640354C388.81747 310.506916 411.471422 287.845801 439.423031 287.845801zM494.493278 557.733601l6.797823 177.146583-43.413765 0-9.515724-150.97041-19.687388 0-7.715729 150.97041-46.303582 0 10.205433-177.146583-32.012088-24.125467 24.433482-131.578758 52.959166 0-3.923356 6.695492 5.216815 10.638291-11.395538 81.523735 17.816784 18.125823 0 1.424442 0.680499-0.708128 0.710175 0.708128 0-1.424442 17.819854-18.125823-11.434423-81.523735 5.255701-10.638291-3.962242-6.695492 53.585429 0 118.881574 5.636371-22.791076 40.056298-105.85591 1.775436L494.493278 557.733601zM694.869934 561.566906l-63.890122 1.071402 2.201132 65.324798 4.102435 106.917078-26.200732 0-5.744841-91.118254-11.881608 0-4.65809 91.118254-27.946492 0 6.157233-106.917078-19.316951-14.560624 14.744819-79.413678 31.966039 0-2.367931 4.041036 3.148713 6.421246-6.877641 49.202609 10.751878 10.940167 0 0.859577 0.410346-0.427742 0.427742 0.427742 0-0.859577 10.758018-10.940167-6.904247-49.202609 3.176342-6.421246-2.39249-4.041036 32.339546 0 71.751161 3.40147L694.869934 561.566906z" p-id="6863"></path></svg>