<?xml version="1.0" standalone="no"?><!DOCTYPE svg PUBLIC "-//W3C//DTD SVG 1.1//EN" "http://www.w3.org/Graphics/SVG/1.1/DTD/svg11.dtd"><svg t="1652501342593" class="icon" viewBox="0 0 1024 1024" version="1.1" xmlns="http://www.w3.org/2000/svg" p-id="3170" xmlns:xlink="http://www.w3.org/1999/xlink" width="200" height="200"><defs><style type="text/css">@font-face { font-family: feedback-iconfont; src: url("//at.alicdn.com/t/font_1031158_u69w8yhxdu.woff2?t=1630033759944") format("woff2"), url("//at.alicdn.com/t/font_1031158_u69w8yhxdu.woff?t=1630033759944") format("woff"), url("//at.alicdn.com/t/font_1031158_u69w8yhxdu.ttf?t=1630033759944") format("truetype"); }
</style></defs><path d="M871.296 951.168H158.656c-47.168 0-85.568-38.4-85.568-85.568v-99.904a24 24 0 0 1 48 0v99.904c0 20.672 16.832 37.568 37.568 37.568h712.64a37.696 37.696 0 0 0 37.568-37.568V152.96a37.632 37.632 0 0 0-37.568-37.568H158.656a37.568 37.568 0 0 0-37.568 37.568v100.736a24 24 0 0 1-48 0V152.96c0-47.168 38.4-85.568 85.568-85.568h712.64c47.168 0 85.568 38.4 85.568 85.568v712.64c0 47.232-38.336 85.568-85.568 85.568z" p-id="3171"></path><path d="M269.312 349.312a24 24 0 0 1-24 24h-176a24 24 0 0 1 0-48h176c13.312 0 24 10.752 24 24zM269.312 512a24 24 0 0 1-24 24h-176a24 24 0 0 1 0.064-48h176c13.248 0 23.936 10.688 23.936 24zM269.312 674.624a24 24 0 0 1-24 24h-176a24 24 0 0 1 0-48h176c13.312 0 24 10.752 24 24zM586.048 556.352c-88.896 0-161.216-72.32-161.216-161.216s72.32-161.28 161.216-161.28c88.96 0 161.344 72.32 161.344 161.28s-72.384 161.216-161.344 161.216z m0-274.496a113.28 113.28 0 1 0 0.192 226.368 113.28 113.28 0 0 0-0.192-226.368z" p-id="3172"></path><path d="M811.456 790.656a24 24 0 0 1-24-24c0-116.032-90.304-210.368-201.344-210.368s-201.344 94.336-201.344 210.368a24 24 0 0 1-48 0c0-142.464 111.872-258.368 249.344-258.368 137.472 0 249.344 115.904 249.344 258.368a24 24 0 0 1-24 24z" p-id="3173"></path></svg>